<svg width="18" height="33" viewBox="0 0 18 33" fill="none" xmlns="http://www.w3.org/2000/svg">
<path d="M12.8079 0.866577H4.26931C3.08325 0.866577 2.07531 1.28169 1.24501 2.11167C0.415108 2.94181 0 3.94975 0 5.13588V13.6742C0 14.8602 0.414874 15.868 1.24501 16.698C2.07523 17.5279 3.08348 17.9432 4.26931 17.9432H9.25006C9.84281 17.9432 10.3469 18.1508 10.762 18.5658C11.1772 18.9805 11.3846 19.4848 11.3846 20.078V20.7891C11.3846 22.3605 10.8286 23.7017 9.71696 24.8136C8.6052 25.9251 7.26377 26.481 5.6922 26.481H4.26931C3.88364 26.481 3.55023 26.6222 3.26845 26.9037C2.98691 27.1851 2.84602 27.5188 2.84602 27.9042V30.7507C2.84602 31.1355 2.98691 31.4698 3.26845 31.7513C3.55046 32.0327 3.88356 32.174 4.26931 32.174H5.69228C7.2341 32.174 8.70536 31.8734 10.1063 31.2732C11.5071 30.673 12.7189 29.8611 13.7418 28.8383C14.7645 27.8153 15.5761 26.6038 16.1764 25.2028C16.7767 23.802 17.0769 22.3308 17.0769 20.7892V5.13557C17.0769 3.94944 16.6618 2.94157 15.8318 2.11159C15.0018 1.28161 13.9937 0.866577 12.8079 0.866577Z" fill="#F6762C"/>
</svg>
